<svg xmlns="http://www.w3.org/2000/svg" width="152" height="144"><rect width="152" height="144" rx="12" fill="#172c29"/><circle cx="76" cy="61" r="56" fill="#4ba5c9" opacity=".18"/><path d="M16 144Q17 103 58 101H94Q135 103 136 144Z" fill="#4ba5c9"/><path d="M62 89h27v25H62Z" fill="#d3ac69"/><ellipse cx="76" cy="64" rx="35" ry="39" fill="#d3ac69"/><path d="M36 53Q30 19 76 18 Q118 18 115 61L105 45 45 45Z" fill="#172c29"/><path d="M38 42h77v14H38Z" fill="#4ba5c9"/><path d="M49 52h24v15H49Zm33 0h24v15H82Z" fill="#f4e8cb"/><path d="M57 73h7m24 0h7" stroke="#172c29" stroke-width="5" stroke-linecap="round"/><path d="M68 87q9 7 18-1" fill="none" stroke="#172c29" stroke-width="3" stroke-linecap="round"/><path d="M59 108l17 17 18-17M76 125v19" fill="none" stroke="#f4e8cb" stroke-width="4"/><text x="112" y="136" font-family="sans-serif" font-size="20" font-weight="bold" fill="#172c29">02</text></svg>