{
	"asset":
	{
		"version": "2.0",
		"generator": "Unreal Engine 5.2.1"
	},
	"scene": 0,
	"accessors": [
		{
			"bufferView": 0,
			"count": 63000,
			"type": "SCALAR",
			"componentType": 5123
		},
		{
			"bufferView": 1,
			"count": 13510,
			"type": "VEC3",
			"componentType": 5126,
			"min": [ -0.0261077881, 0, -0.025141906 ],
			"max": [ 0.0263555907, 0.0931200385, 0.0267730709 ]
		},
		{
			"bufferView": 2,
			"count": 13510,
			"type": "VEC3",
			"componentType": 5126
		},
		{
			"bufferView": 3,
			"count": 13510,
			"type": "VEC4",
			"componentType": 5126
		},
		{
			"bufferView": 4,
			"count": 13510,
			"type": "VEC2",
			"componentType": 5126
		},
		{
			"bufferView": 5,
			"count": 77400,
			"type": "SCALAR",
			"componentType": 5123
		},
		{
			"bufferView": 6,
			"count": 16598,
			"type": "VEC3",
			"componentType": 5126,
			"min": [ -0.0981074497, 0, -0.0380928032 ],
			"max": [ -0.0395454392, 0.113120042, 0.0195317082 ]
		},
		{
			"bufferView": 7,
			"count": 16598,
			"type": "VEC3",
			"componentType": 5126
		},
		{
			"bufferView": 8,
			"count": 16598,
			"type": "VEC4",
			"componentType": 5126
		},
		{
			"bufferView": 9,
			"count": 16598,
			"type": "VEC2",
			"componentType": 5126
		},
		{
			"bufferView": 10,
			"count": 43200,
			"type": "SCALAR",
			"componentType": 5123
		},
		{
			"bufferView": 11,
			"count": 9264,
			"type": "VEC3",
			"componentType": 5126,
			"min": [ -0.0546913147, 0, -0.075000152 ],
			"max": [ -0.00284652715, 0.0631200373, -0.022735443 ]
		},
		{
			"bufferView": 12,
			"count": 9264,
			"type": "VEC3",
			"componentType": 5126
		},
		{
			"bufferView": 13,
			"count": 9264,
			"type": "VEC4",
			"componentType": 5126
		},
		{
			"bufferView": 14,
			"count": 9264,
			"type": "VEC2",
			"componentType": 5126
		},
		{
			"bufferView": 15,
			"count": 30600,
			"type": "SCALAR",
			"componentType": 5123
		},
		{
			"bufferView": 16,
			"count": 6562,
			"type": "VEC3",
			"componentType": 5126,
			"min": [ -0.115956873, 0, -0.0839630142 ],
			"max": [ -0.0632272288, 0.0431200415, -0.033937376 ]
		},
		{
			"bufferView": 17,
			"count": 6562,
			"type": "VEC3",
			"componentType": 5126
		},
		{
			"bufferView": 18,
			"count": 6562,
			"type": "VEC4",
			"componentType": 5126
		},
		{
			"bufferView": 19,
			"count": 6562,
			"type": "VEC2",
			"componentType": 5126
		},
		{
			"bufferView": 20,
			"count": 19800,
			"type": "SCALAR",
			"componentType": 5123
		},
		{
			"bufferView": 21,
			"count": 4246,
			"type": "VEC3",
			"componentType": 5126,
			"min": [ -0.0908665434, 0, -0.136093289 ],
			"max": [ -0.0380973816, 0.0281200409, -0.0792657435 ]
		},
		{
			"bufferView": 22,
			"count": 4246,
			"type": "VEC3",
			"componentType": 5126
		},
		{
			"bufferView": 23,
			"count": 4246,
			"type": "VEC4",
			"componentType": 5126
		},
		{
			"bufferView": 24,
			"count": 4246,
			"type": "VEC2",
			"componentType": 5126
		},
		{
			"bufferView": 25,
			"count": 12600,
			"type": "SCALAR",
			"componentType": 5123
		},
		{
			"bufferView": 26,
			"count": 2702,
			"type": "VEC3",
			"componentType": 5126,
			"min": [ -0.0356541425, 0, -0.128044888 ],
			"max": [ 0.0203289799, 0.0181200411, -0.073065944 ]
		},
		{
			"bufferView": 27,
			"count": 2702,
			"type": "VEC3",
			"componentType": 5126
		},
		{
			"bufferView": 28,
			"count": 2702,
			"type": "VEC4",
			"componentType": 5126
		},
		{
			"bufferView": 29,
			"count": 2702,
			"type": "VEC2",
			"componentType": 5126
		},
		{
			"bufferView": 30,
			"count": 23400,
			"type": "SCALAR",
			"componentType": 5123
		},
		{
			"bufferView": 31,
			"count": 5018,
			"type": "VEC3",
			"componentType": 5126,
			"min": [ 0.00687026978, 0, -0.0847683698 ],
			"max": [ 0.0561788939, 0.0331200399, -0.0342237838 ]
		},
		{
			"bufferView": 32,
			"count": 5018,
			"type": "VEC3",
			"componentType": 5126
		},
		{
			"bufferView": 33,
			"count": 5018,
			"type": "VEC4",
			"componentType": 5126
		},
		{
			"bufferView": 34,
			"count": 5018,
			"type": "VEC2",
			"componentType": 5126
		}
	],
	"buffers": [
		{
			"uri": "chip.bin",
			"byteLength": 3319200
		}
	],
	"bufferViews": [
		{
			"buffer": 0,
			"byteLength": 126000,
			"target": 34963
		},
		{
			"buffer": 0,
			"byteLength": 162120,
			"byteOffset": 126000,
			"target": 34962
		},
		{
			"buffer": 0,
			"byteLength": 162120,
			"byteOffset": 288120,
			"target": 34962
		},
		{
			"buffer": 0,
			"byteLength": 216160,
			"byteOffset": 450240,
			"target": 34962
		},
		{
			"buffer": 0,
			"byteLength": 108080,
			"byteOffset": 666400,
			"target": 34962
		},
		{
			"buffer": 0,
			"byteLength": 154800,
			"byteOffset": 774480,
			"target": 34963
		},
		{
			"buffer": 0,
			"byteLength": 199176,
			"byteOffset": 929280,
			"target": 34962
		},
		{
			"buffer": 0,
			"byteLength": 199176,
			"byteOffset": 1128456,
			"target": 34962
		},
		{
			"buffer": 0,
			"byteLength": 265568,
			"byteOffset": 1327632,
			"target": 34962
		},
		{
			"buffer": 0,
			"byteLength": 132784,
			"byteOffset": 1593200,
			"target": 34962
		},
		{
			"buffer": 0,
			"byteLength": 86400,
			"byteOffset": 1725984,
			"target": 34963
		},
		{
			"buffer": 0,
			"byteLength": 111168,
			"byteOffset": 1812384,
			"target": 34962
		},
		{
			"buffer": 0,
			"byteLength": 111168,
			"byteOffset": 1923552,
			"target": 34962
		},
		{
			"buffer": 0,
			"byteLength": 148224,
			"byteOffset": 2034720,
			"target": 34962
		},
		{
			"buffer": 0,
			"byteLength": 74112,
			"byteOffset": 2182944,
			"target": 34962
		},
		{
			"buffer": 0,
			"byteLength": 61200,
			"byteOffset": 2257056,
			"target": 34963
		},
		{
			"buffer": 0,
			"byteLength": 78744,
			"byteOffset": 2318256,
			"target": 34962
		},
		{
			"buffer": 0,
			"byteLength": 78744,
			"byteOffset": 2397000,
			"target": 34962
		},
		{
			"buffer": 0,
			"byteLength": 104992,
			"byteOffset": 2475744,
			"target": 34962
		},
		{
			"buffer": 0,
			"byteLength": 52496,
			"byteOffset": 2580736,
			"target": 34962
		},
		{
			"buffer": 0,
			"byteLength": 39600,
			"byteOffset": 2633232,
			"target": 34963
		},
		{
			"buffer": 0,
			"byteLength": 50952,
			"byteOffset": 2672832,
			"target": 34962
		},
		{
			"buffer": 0,
			"byteLength": 50952,
			"byteOffset": 2723784,
			"target": 34962
		},
		{
			"buffer": 0,
			"byteLength": 67936,
			"byteOffset": 2774736,
			"target": 34962
		},
		{
			"buffer": 0,
			"byteLength": 33968,
			"byteOffset": 2842672,
			"target": 34962
		},
		{
			"buffer": 0,
			"byteLength": 25200,
			"byteOffset": 2876640,
			"target": 34963
		},
		{
			"buffer": 0,
			"byteLength": 32424,
			"byteOffset": 2901840,
			"target": 34962
		},
		{
			"buffer": 0,
			"byteLength": 32424,
			"byteOffset": 2934264,
			"target": 34962
		},
		{
			"buffer": 0,
			"byteLength": 43232,
			"byteOffset": 2966688,
			"target": 34962
		},
		{
			"buffer": 0,
			"byteLength": 21616,
			"byteOffset": 3009920,
			"target": 34962
		},
		{
			"buffer": 0,
			"byteLength": 46800,
			"byteOffset": 3031536,
			"target": 34963
		},
		{
			"buffer": 0,
			"byteLength": 60216,
			"byteOffset": 3078336,
			"target": 34962
		},
		{
			"buffer": 0,
			"byteLength": 60216,
			"byteOffset": 3138552,
			"target": 34962
		},
		{
			"buffer": 0,
			"byteLength": 80288,
			"byteOffset": 3198768,
			"target": 34962
		},
		{
			"buffer": 0,
			"byteLength": 40144,
			"byteOffset": 3279056,
			"target": 34962
		}
	],
	"images": [
		{
			"uri": "chip_new_M_Inst_5_MetallicRoughness.jpg"
		},
		{
			"uri": "chip_new_M_Inst_4_MetallicRoughness.jpg"
		},
		{
			"uri": "chip_new_M_Inst_7_MetallicRoughness.jpg"
		},
		{
			"uri": "chip_new_M_Inst_6_MetallicRoughness.jpg"
		},
		{
			"uri": "chip_new_M_Inst_2_MetallicRoughness.jpg"
		},
		{
			"uri": "chip_new_M_Inst_1_MetallicRoughness.jpg"
		},
		{
			"uri": "chip_new_M_Inst_3_MetallicRoughness.jpg"
		},
		{
			"uri": "sop_chip_stack_8573_25776_0_main_geo_1_BaseColor_C4B53A57.jpg"
		},
		{
			"uri": "sop_chip_stack_8573_25776_0_main_geo_1_TangentNormal_24323D98.jpg"
		},
		{
			"uri": "sop_chip_stack_8573_25776_0_main_geo_1_BaseColor_5815D64F.jpg"
		},
		{
			"uri": "sop_chip_stack_8573_25776_0_main_geo_1_TangentNormal_98C7C107.jpg"
		},
		{
			"uri": "sop_chip_stack_8573_25776_0_main_geo_1_BaseColor_1D9D3AC5.jpg"
		},
		{
			"uri": "sop_chip_stack_8573_25776_0_main_geo_1_TangentNormal_5087ABE8.jpg"
		},
		{
			"uri": "sop_chip_stack_8573_25776_0_main_geo_1_BaseColor_E4FA43DF.jpg"
		},
		{
			"uri": "sop_chip_stack_8573_25776_0_main_geo_1_TangentNormal_558F63C0.jpg"
		},
		{
			"uri": "sop_chip_stack_8573_25776_0_main_geo_1_BaseColor_457587B9.jpg"
		},
		{
			"uri": "sop_chip_stack_8573_25776_0_main_geo_1_TangentNormal_BC31622C.jpg"
		},
		{
			"uri": "sop_chip_stack_8573_25776_0_main_geo_1_BaseColor_2D0F1524.jpg"
		},
		{
			"uri": "sop_chip_stack_8573_25776_0_main_geo_1_TangentNormal_E7EE7988.jpg"
		},
		{
			"uri": "sop_chip_stack_8573_25776_0_main_geo_1_BaseColor_6795DC86.jpg"
		},
		{
			"uri": "sop_chip_stack_8573_25776_0_main_geo_1_TangentNormal_2F3EAB44.jpg"
		}
	],
	"materials": [
		{
			"name": "chip_new_M_Inst_5",
			"pbrMetallicRoughness":
			{
				"baseColorTexture":
				{
					"index": 0
				},
				"metallicRoughnessTexture":
				{
					"index": 1
				}
			},
			"normalTexture":
			{
				"index": 2
			}
		},
		{
			"name": "chip_new_M_Inst_4",
			"pbrMetallicRoughness":
			{
				"baseColorTexture":
				{
					"index": 3
				},
				"metallicRoughnessTexture":
				{
					"index": 4
				}
			},
			"normalTexture":
			{
				"index": 5
			}
		},
		{
			"name": "chip_new_M_Inst_7",
			"pbrMetallicRoughness":
			{
				"baseColorTexture":
				{
					"index": 6
				},
				"metallicRoughnessTexture":
				{
					"index": 7
				}
			},
			"normalTexture":
			{
				"index": 8
			}
		},
		{
			"name": "chip_new_M_Inst_6",
			"pbrMetallicRoughness":
			{
				"baseColorTexture":
				{
					"index": 9
				},
				"metallicRoughnessTexture":
				{
					"index": 10
				}
			},
			"normalTexture":
			{
				"index": 11
			}
		},
		{
			"name": "chip_new_M_Inst_2",
			"pbrMetallicRoughness":
			{
				"baseColorTexture":
				{
					"index": 12
				},
				"metallicRoughnessTexture":
				{
					"index": 13
				}
			},
			"normalTexture":
			{
				"index": 14
			}
		},
		{
			"name": "chip_new_M_Inst_1",
			"pbrMetallicRoughness":
			{
				"baseColorTexture":
				{
					"index": 15
				},
				"metallicRoughnessTexture":
				{
					"index": 16
				}
			},
			"normalTexture":
			{
				"index": 17
			}
		},
		{
			"name": "chip_new_M_Inst_3",
			"pbrMetallicRoughness":
			{
				"baseColorTexture":
				{
					"index": 18
				},
				"metallicRoughnessTexture":
				{
					"index": 19
				}
			},
			"normalTexture":
			{
				"index": 20
			}
		}
	],
	"meshes": [
		{
			"name": "SM_MERGED_chip_v2_5_instancer_0_0",
			"primitives": [
				{
					"attributes":
					{
						"POSITION": 1,
						"NORMAL": 2,
						"TANGENT": 3,
						"TEXCOORD_0": 4
					},
					"indices": 0,
					"material": 0
				},
				{
					"attributes":
					{
						"POSITION": 6,
						"NORMAL": 7,
						"TANGENT": 8,
						"TEXCOORD_0": 9
					},
					"indices": 5,
					"material": 1
				},
				{
					"attributes":
					{
						"POSITION": 11,
						"NORMAL": 12,
						"TANGENT": 13,
						"TEXCOORD_0": 14
					},
					"indices": 10,
					"material": 2
				},
				{
					"attributes":
					{
						"POSITION": 16,
						"NORMAL": 17,
						"TANGENT": 18,
						"TEXCOORD_0": 19
					},
					"indices": 15,
					"material": 3
				},
				{
					"attributes":
					{
						"POSITION": 21,
						"NORMAL": 22,
						"TANGENT": 23,
						"TEXCOORD_0": 24
					},
					"indices": 20,
					"material": 4
				},
				{
					"attributes":
					{
						"POSITION": 26,
						"NORMAL": 27,
						"TANGENT": 28,
						"TEXCOORD_0": 29
					},
					"indices": 25,
					"material": 5
				},
				{
					"attributes":
					{
						"POSITION": 31,
						"NORMAL": 32,
						"TANGENT": 33,
						"TEXCOORD_0": 34
					},
					"indices": 30,
					"material": 6
				}
			]
		}
	],
	"nodes": [
		{
			"mesh": 0
		}
	],
	"samplers": [
		{
			"minFilter": 9987,
			"magFilter": 9729
		}
	],
	"scenes": [
		{
			"nodes": [ 0 ]
		}
	],
	"textures": [
		{
			"name": "sop_chip_stack_8573_25776_0_main_geo_1_BaseColor_C4B53A57",
			"sampler": 0,
			"source": 7
		},
		{
			"name": "chip_new_M_Inst_5_MetallicRoughness",
			"sampler": 0,
			"source": 0
		},
		{
			"name": "sop_chip_stack_8573_25776_0_main_geo_1_TangentNormal_24323D98",
			"sampler": 0,
			"source": 8
		},
		{
			"name": "sop_chip_stack_8573_25776_0_main_geo_1_BaseColor_5815D64F",
			"sampler": 0,
			"source": 9
		},
		{
			"name": "chip_new_M_Inst_4_MetallicRoughness",
			"sampler": 0,
			"source": 1
		},
		{
			"name": "sop_chip_stack_8573_25776_0_main_geo_1_TangentNormal_98C7C107",
			"sampler": 0,
			"source": 10
		},
		{
			"name": "sop_chip_stack_8573_25776_0_main_geo_1_BaseColor_1D9D3AC5",
			"sampler": 0,
			"source": 11
		},
		{
			"name": "chip_new_M_Inst_7_MetallicRoughness",
			"sampler": 0,
			"source": 2
		},
		{
			"name": "sop_chip_stack_8573_25776_0_main_geo_1_TangentNormal_5087ABE8",
			"sampler": 0,
			"source": 12
		},
		{
			"name": "sop_chip_stack_8573_25776_0_main_geo_1_BaseColor_E4FA43DF",
			"sampler": 0,
			"source": 13
		},
		{
			"name": "chip_new_M_Inst_6_MetallicRoughness",
			"sampler": 0,
			"source": 3
		},
		{
			"name": "sop_chip_stack_8573_25776_0_main_geo_1_TangentNormal_558F63C0",
			"sampler": 0,
			"source": 14
		},
		{
			"name": "sop_chip_stack_8573_25776_0_main_geo_1_BaseColor_457587B9",
			"sampler": 0,
			"source": 15
		},
		{
			"name": "chip_new_M_Inst_2_MetallicRoughness",
			"sampler": 0,
			"source": 4
		},
		{
			"name": "sop_chip_stack_8573_25776_0_main_geo_1_TangentNormal_BC31622C",
			"sampler": 0,
			"source": 16
		},
		{
			"name": "sop_chip_stack_8573_25776_0_main_geo_1_BaseColor_2D0F1524",
			"sampler": 0,
			"source": 17
		},
		{
			"name": "chip_new_M_Inst_1_MetallicRoughness",
			"sampler": 0,
			"source": 5
		},
		{
			"name": "sop_chip_stack_8573_25776_0_main_geo_1_TangentNormal_E7EE7988",
			"sampler": 0,
			"source": 18
		},
		{
			"name": "sop_chip_stack_8573_25776_0_main_geo_1_BaseColor_6795DC86",
			"sampler": 0,
			"source": 19
		},
		{
			"name": "chip_new_M_Inst_3_MetallicRoughness",
			"sampler": 0,
			"source": 6
		},
		{
			"name": "sop_chip_stack_8573_25776_0_main_geo_1_TangentNormal_2F3EAB44",
			"sampler": 0,
			"source": 20
		}
	]
}